<svg width="8" height="9" viewBox="0 0 8 9" fill="none" xmlns="http://www.w3.org/2000/svg">
<path d="M3.6235 6.07L1.2255 3.329C0.942498 3.0065 1.1725 2.5 1.602 2.5H6.398C6.49412 2.49992 6.58823 2.52754 6.66905 2.57957C6.74988 2.6316 6.81399 2.70582 6.85372 2.79335C6.89345 2.88087 6.90711 2.978 6.89306 3.07309C6.879 3.16818 6.83784 3.2572 6.7745 3.3295L4.3765 6.0695C4.32957 6.1232 4.27169 6.16625 4.20675 6.19574C4.14181 6.22523 4.07132 6.24049 4 6.24049C3.92868 6.24049 3.85818 6.22523 3.79324 6.19574C3.72831 6.16625 3.67043 6.1232 3.6235 6.0695V6.07Z" fill="white"/>
</svg>
