<svg width="17" height="17" viewBox="0 0 17 17" fill="none" xmlns="http://www.w3.org/2000/svg">
<path d="M4.65135 7.83334H12.3493C12.924 7.83334 13.2293 7.15335 12.8473 6.72335L8.99868 2.39335C8.93625 2.32288 8.85958 2.26647 8.77374 2.22783C8.68789 2.1892 8.59482 2.16922 8.50068 2.16922C8.40654 2.16922 8.31347 2.1892 8.22762 2.22783C8.14178 2.26647 8.06511 2.32288 8.00268 2.39335L4.15268 6.72335C3.77068 7.15335 4.07601 7.83334 4.65135 7.83334ZM8.00201 14.606C8.06444 14.6765 8.14111 14.7329 8.22696 14.7715C8.31281 14.8102 8.40587 14.8301 8.50001 14.8301C8.59415 14.8301 8.68722 14.8102 8.77307 14.7715C8.85891 14.7329 8.93559 14.6765 8.99801 14.606L12.8467 10.276C13.2293 9.84668 12.924 9.16668 12.3487 9.16668H4.65135C4.07668 9.16668 3.77135 9.84668 4.15335 10.2767L8.00201 14.606Z" fill="#9E9E9E"/>
</svg>
